<mxfile host="app.diagrams.net" modified="2024-01-24T07:16:48.086Z" agent="Mozilla/5.0 (Windows NT 10.0; Win64; x64) AppleWebKit/537.36 (KHTML, like Gecko) Chrome/120.0.0.0 Safari/537.36" etag="C6vjQbPwmbEhMGsuAL8X" version="23.0.0" type="github">
  <diagram name="Page-1" id="xwbfXepOGaStgWDnpR70">
    <mxGraphModel dx="1318" dy="541" grid="1" gridSize="10" guides="1" tooltips="1" connect="1" arrows="1" fold="1" page="1" pageScale="1" pageWidth="827" pageHeight="1169" math="0" shadow="0">
      <root>
        <mxCell id="0" />
        <mxCell id="1" parent="0" />
        <mxCell id="OvZi1ztuwzXz519JT60X-1" value="Playing Blackjack" style="rounded=1;whiteSpace=wrap;html=1;" vertex="1" parent="1">
          <mxGeometry x="330" y="40" width="120" height="60" as="geometry" />
        </mxCell>
        <mxCell id="OvZi1ztuwzXz519JT60X-2" value="Draw Cards" style="shape=parallelogram;perimeter=parallelogramPerimeter;whiteSpace=wrap;html=1;fixedSize=1;" vertex="1" parent="1">
          <mxGeometry x="329" y="160" width="120" height="60" as="geometry" />
        </mxCell>
        <mxCell id="OvZi1ztuwzXz519JT60X-3" value="" style="endArrow=classic;html=1;rounded=0;exitX=0.5;exitY=1;exitDx=0;exitDy=0;" edge="1" parent="1" source="OvZi1ztuwzXz519JT60X-1">
          <mxGeometry width="50" height="50" relative="1" as="geometry">
            <mxPoint x="460" y="250" as="sourcePoint" />
            <mxPoint x="390" y="160" as="targetPoint" />
          </mxGeometry>
        </mxCell>
        <mxCell id="OvZi1ztuwzXz519JT60X-4" value="Cards are &lt;br&gt;below 10" style="rhombus;whiteSpace=wrap;html=1;" vertex="1" parent="1">
          <mxGeometry x="334" y="260" width="110" height="100" as="geometry" />
        </mxCell>
        <mxCell id="OvZi1ztuwzXz519JT60X-6" value="" style="endArrow=classic;html=1;rounded=0;exitX=0.5;exitY=1;exitDx=0;exitDy=0;entryX=0.5;entryY=0;entryDx=0;entryDy=0;" edge="1" parent="1" source="OvZi1ztuwzXz519JT60X-2" target="OvZi1ztuwzXz519JT60X-4">
          <mxGeometry width="50" height="50" relative="1" as="geometry">
            <mxPoint x="460" y="450" as="sourcePoint" />
            <mxPoint x="530" y="320" as="targetPoint" />
          </mxGeometry>
        </mxCell>
        <mxCell id="OvZi1ztuwzXz519JT60X-56" value="" style="endArrow=classic;html=1;rounded=0;entryX=0;entryY=0.5;entryDx=0;entryDy=0;" edge="1" parent="1" target="OvZi1ztuwzXz519JT60X-61">
          <mxGeometry width="50" height="50" relative="1" as="geometry">
            <mxPoint x="444" y="309.5" as="sourcePoint" />
            <mxPoint x="505" y="309.5" as="targetPoint" />
          </mxGeometry>
        </mxCell>
        <mxCell id="OvZi1ztuwzXz519JT60X-57" value="Hit" style="edgeLabel;html=1;align=center;verticalAlign=middle;resizable=0;points=[];" vertex="1" connectable="0" parent="OvZi1ztuwzXz519JT60X-56">
          <mxGeometry x="0.1532" y="8" relative="1" as="geometry">
            <mxPoint x="-9" y="-1" as="offset" />
          </mxGeometry>
        </mxCell>
        <mxCell id="OvZi1ztuwzXz519JT60X-60" value="End" style="rounded=1;whiteSpace=wrap;html=1;" vertex="1" parent="1">
          <mxGeometry x="130" y="283" width="120" height="60" as="geometry" />
        </mxCell>
        <mxCell id="OvZi1ztuwzXz519JT60X-61" value="Cards are below &lt;br&gt;below 15&amp;nbsp;" style="rhombus;whiteSpace=wrap;html=1;" vertex="1" parent="1">
          <mxGeometry x="514" y="255" width="126" height="110" as="geometry" />
        </mxCell>
        <mxCell id="OvZi1ztuwzXz519JT60X-68" value="Stand" style="text;html=1;align=center;verticalAlign=middle;resizable=0;points=[];autosize=1;strokeColor=none;fillColor=none;" vertex="1" parent="1">
          <mxGeometry x="230" y="238" width="50" height="30" as="geometry" />
        </mxCell>
        <mxCell id="OvZi1ztuwzXz519JT60X-72" value="" style="endArrow=classic;html=1;rounded=0;exitX=0;exitY=0.5;exitDx=0;exitDy=0;entryX=0.917;entryY=0.95;entryDx=0;entryDy=0;entryPerimeter=0;" edge="1" parent="1" source="OvZi1ztuwzXz519JT60X-73" target="OvZi1ztuwzXz519JT60X-60">
          <mxGeometry width="50" height="50" relative="1" as="geometry">
            <mxPoint x="573.9999999999998" y="365" as="sourcePoint" />
            <mxPoint x="250" y="440" as="targetPoint" />
            <Array as="points">
              <mxPoint x="240" y="443" />
            </Array>
          </mxGeometry>
        </mxCell>
        <mxCell id="OvZi1ztuwzXz519JT60X-73" value="Cards are below &lt;br&gt;18" style="rhombus;whiteSpace=wrap;html=1;" vertex="1" parent="1">
          <mxGeometry x="650" y="398" width="126" height="90" as="geometry" />
        </mxCell>
        <mxCell id="OvZi1ztuwzXz519JT60X-76" value="" style="endArrow=classic;html=1;rounded=0;" edge="1" parent="1">
          <mxGeometry width="50" height="50" relative="1" as="geometry">
            <mxPoint x="712.4100000000001" y="488" as="sourcePoint" />
            <mxPoint x="712.4100000000001" y="548" as="targetPoint" />
          </mxGeometry>
        </mxCell>
        <mxCell id="OvZi1ztuwzXz519JT60X-77" value="Cards are less than or equal to 20 and greater than 18" style="rhombus;whiteSpace=wrap;html=1;" vertex="1" parent="1">
          <mxGeometry x="638" y="560" width="150" height="130" as="geometry" />
        </mxCell>
        <mxCell id="OvZi1ztuwzXz519JT60X-78" value="Hit" style="text;html=1;align=center;verticalAlign=middle;resizable=0;points=[];autosize=1;strokeColor=none;fillColor=none;" vertex="1" parent="1">
          <mxGeometry x="710" y="330" width="40" height="30" as="geometry" />
        </mxCell>
        <mxCell id="OvZi1ztuwzXz519JT60X-79" value="Hit" style="text;html=1;align=center;verticalAlign=middle;resizable=0;points=[];autosize=1;strokeColor=none;fillColor=none;" vertex="1" parent="1">
          <mxGeometry x="710" y="500" width="40" height="30" as="geometry" />
        </mxCell>
        <mxCell id="OvZi1ztuwzXz519JT60X-80" value="" style="endArrow=classic;html=1;rounded=0;exitX=0;exitY=0.5;exitDx=0;exitDy=0;entryX=0.5;entryY=1;entryDx=0;entryDy=0;" edge="1" parent="1" source="OvZi1ztuwzXz519JT60X-77" target="OvZi1ztuwzXz519JT60X-60">
          <mxGeometry width="50" height="50" relative="1" as="geometry">
            <mxPoint x="490" y="560" as="sourcePoint" />
            <mxPoint x="190" y="625" as="targetPoint" />
            <Array as="points">
              <mxPoint x="190" y="625" />
            </Array>
          </mxGeometry>
        </mxCell>
        <mxCell id="OvZi1ztuwzXz519JT60X-81" value="Stand" style="text;html=1;align=center;verticalAlign=middle;resizable=0;points=[];autosize=1;strokeColor=none;fillColor=none;" vertex="1" parent="1">
          <mxGeometry x="330" y="600" width="50" height="30" as="geometry" />
        </mxCell>
        <mxCell id="OvZi1ztuwzXz519JT60X-82" value="" style="endArrow=classic;html=1;rounded=0;exitX=0;exitY=0.5;exitDx=0;exitDy=0;" edge="1" parent="1" source="OvZi1ztuwzXz519JT60X-4">
          <mxGeometry width="50" height="50" relative="1" as="geometry">
            <mxPoint x="490" y="440" as="sourcePoint" />
            <mxPoint x="250" y="310" as="targetPoint" />
          </mxGeometry>
        </mxCell>
        <mxCell id="OvZi1ztuwzXz519JT60X-83" value="Stand" style="text;html=1;align=center;verticalAlign=middle;resizable=0;points=[];autosize=1;strokeColor=none;fillColor=none;" vertex="1" parent="1">
          <mxGeometry x="270" y="280" width="50" height="30" as="geometry" />
        </mxCell>
        <mxCell id="OvZi1ztuwzXz519JT60X-85" value="" style="endArrow=classic;html=1;rounded=0;exitX=1;exitY=0.5;exitDx=0;exitDy=0;entryX=0.5;entryY=0;entryDx=0;entryDy=0;" edge="1" parent="1" source="OvZi1ztuwzXz519JT60X-61" target="OvZi1ztuwzXz519JT60X-73">
          <mxGeometry width="50" height="50" relative="1" as="geometry">
            <mxPoint x="490" y="440" as="sourcePoint" />
            <mxPoint x="720" y="310" as="targetPoint" />
            <Array as="points">
              <mxPoint x="713" y="310" />
            </Array>
          </mxGeometry>
        </mxCell>
      </root>
    </mxGraphModel>
  </diagram>
</mxfile>
